<svg width="126" height="41" viewBox="0 0 126 41" fill="none" xmlns="http://www.w3.org/2000/svg">
<path fill-rule="evenodd" clip-rule="evenodd" d="M30.6488 24.4359L30.091 27.4373C29.3389 31.4844 27.4625 34.8247 24.4153 37.2937C21.386 39.761 17.7581 40.9064 13.6797 40.7997C11.1896 40.7435 8.90144 40.1276 6.89838 38.8781L6.89087 38.8735L6.88339 38.8687C4.86805 37.5917 3.34242 35.7826 2.28801 33.5419L2.2863 33.5383L2.2846 33.5347C1.26005 31.3392 0.709319 28.9479 0.60247 26.3919C0.53345 24.9657 0.594164 23.5634 0.788173 22.1877L1.18668 19.3748C1.97481 13.8746 3.93976 9.31103 7.24514 5.89728C10.5935 2.43968 14.7448 0.718708 19.5433 0.809933L19.5445 0.809957C23.296 0.883158 26.5154 2.12696 28.9233 4.71337C31.3202 7.2721 32.4429 10.6937 32.565 14.6689L32.644 17.241H23.3039L23.2024 14.8514C23.112 12.7252 22.6574 11.4403 22.1216 10.7036C21.6599 10.0688 20.9986 9.64194 19.8688 9.51219L19.2028 9.47183C17.0388 9.42445 15.295 10.1948 13.7993 11.9138C12.2338 13.7154 11.1012 16.3182 10.5713 19.9268C10.5713 19.927 10.5712 19.9273 10.5712 19.9275L10.0707 23.3629L9.93993 25.2807C9.86317 27.812 10.3256 29.5171 11.0516 30.6382C11.6813 31.5767 12.5553 32.0956 14.0218 32.1372L14.0275 32.1374L14.0331 32.1376C15.9424 32.2004 17.2877 31.7446 18.2789 30.9637L18.2837 30.9599L18.2885 30.9561C19.3009 30.1665 20.2665 28.7389 20.9896 26.3332L21.5146 24.5864L30.6488 24.4359ZM8.96779 32.0114C7.86039 30.3114 7.35349 28.0264 7.44707 25.1565L7.58744 23.0977L8.10215 19.565C8.67924 15.6345 9.9504 12.5385 11.9156 10.2769C13.8965 7.99974 16.3608 6.90014 19.3087 6.97813L20.0807 7.02492C23.6212 7.39925 25.4929 9.97277 25.6957 14.7455H30.0706C30.0436 13.8659 29.9627 13.0341 29.8279 12.2499C29.4176 9.86371 28.5081 7.91928 27.0994 6.41663C25.2277 4.40461 22.6932 3.3674 19.4958 3.30502C15.3938 3.22703 11.9078 4.66976 9.03797 7.63321C6.18371 10.5811 4.39004 14.6129 3.65698 19.7287L3.25925 22.5362C3.08769 23.7528 3.0331 25.0006 3.09548 26.2795C3.18907 28.5411 3.67258 30.6077 4.54601 32.4794C5.41945 34.3354 6.64382 35.7625 8.21913 36.7608C9.79443 37.7434 11.6349 38.2581 13.7405 38.3049C17.281 38.3984 20.3147 37.4158 22.8414 35.357C24.748 33.813 26.1238 31.8568 26.969 29.4883C27.2509 28.6985 27.4737 27.8629 27.6375 26.9814L23.3795 27.0516C22.5684 29.7499 21.3831 31.7073 19.8234 32.9239C18.2792 34.1404 16.3218 34.7097 13.9511 34.6318C11.7519 34.5694 10.0908 33.6959 8.96779 32.0114ZM50.2421 40.3325L52.9794 24.5872H41.411L38.6737 40.3325H29.2097L35.996 1.2774H45.4613L42.9112 15.9231H54.4559L57.006 1.2774H66.4929L60.2795 37.0356L79.7058 1.2774H87.1006L94.8258 40.3325H85.3769L83.7626 31.4422H73.5525L68.8968 40.3325H50.2421ZM72.0424 28.9466H85.8458L87.4601 37.837H91.7883L85.0504 3.77293H81.1901L62.6841 37.837H67.3867L72.0424 28.9466ZM82.3599 9.36448L85.1907 25.2501H73.9842L82.3599 9.36448ZM81.178 16.9568L78.1211 22.7546H82.2112L81.178 16.9568ZM56.5545 18.4186H39.9436L42.4937 3.77293H38.0953L32.1762 37.837H36.5746L39.3119 22.0917H55.9462L53.2089 37.837H57.6073L63.5264 3.77293H59.1046L56.5545 18.4186ZM123.686 9.96497H113.096L107.832 40.3325H98.3918L103.656 9.96497H93.0462L94.5858 1.2774H125.226L123.686 9.96497ZM106.621 7.46944L101.357 37.837H105.732L110.996 7.46944H121.594L122.249 3.77293H96.678L96.0229 7.46944H106.621Z" fill="#553C9A"/>
</svg>
