<svg width="160" height="160" viewBox="0 0 160 160" fill="none" xmlns="http://www.w3.org/2000/svg">
<path d="M61 6.38461C61 5.70136 61.2061 5.22993 61.3662 5H98.6338C98.7939 5.22993 99 5.70137 99 6.38462V76.6154C99 77.2986 98.7939 77.7701 98.6338 78H61.3662C61.2061 77.7701 61 77.2986 61 76.6154V6.38461Z" stroke="#2D3748" stroke-width="10"/>
<path d="M118 6.40625C118 5.71283 118.209 5.2338 118.371 5H154.629C154.791 5.2338 155 5.71283 155 6.40625V116.594C155 117.287 154.791 117.766 154.629 118H118.371C118.209 117.766 118 117.287 118 116.594V6.40625Z" stroke="#2D3748" stroke-width="10"/>
<path d="M5 6.4C5 5.70952 5.20801 5.23268 5.36982 5H41.6302C41.792 5.23268 42 5.70952 42 6.4V153.6C42 154.29 41.792 154.767 41.6302 155H5.36982C5.20801 154.767 5 154.29 5 153.6V6.4Z" stroke="#2D3748" stroke-width="10"/>
</svg>
